<svg width="41" height="41" viewBox="0 0 41 41" fill="none" xmlns="http://www.w3.org/2000/svg">
<g filter="url(#filter0_d_2_545)">
<rect x="4" width="33" height="33" rx="6" fill="white"/>
</g>
<path fill-rule="evenodd" clip-rule="evenodd" d="M27.4889 21C27.4889 21.5523 27.0412 22 26.4889 22H26.3556H26.2222H25.2222V21V11V10H26.2222H26.3556H26.4889C27.0412 10 27.4889 10.4477 27.4889 11V11.7444C27.5671 11.7247 27.649 11.7143 27.7333 11.7143H28C28.5523 11.7143 29 12.162 29 12.7143V19.2857C29 19.838 28.5523 20.2857 28 20.2857H27.7333C27.649 20.2857 27.5671 20.2753 27.4889 20.2556V21Z" fill="#4B6746"/>
<path fill-rule="evenodd" clip-rule="evenodd" d="M13.5111 11C13.5111 10.4477 13.9588 10 14.5111 10H14.6444H14.7778H15.7778V11V21V22H14.7778H14.6444H14.5111C13.9588 22 13.5111 21.5523 13.5111 21V20.2556C13.4329 20.2753 13.351 20.2857 13.2667 20.2857H13C12.4477 20.2857 12 19.838 12 19.2857V12.7143C12 12.162 12.4477 11.7143 13 11.7143H13.2667C13.351 11.7143 13.4329 11.7247 13.5111 11.7444V11Z" fill="#4B6746"/>
<line x1="15" y1="16" x2="26" y2="16" stroke="#4B6746" stroke-width="4"/>
<defs>
<filter id="filter0_d_2_545" x="0" y="0" width="41" height="41" filterUnits="userSpaceOnUse" color-interpolation-filters="sRGB">
<feFlood flood-opacity="0" result="BackgroundImageFix"/>
<feColorMatrix in="SourceAlpha" type="matrix" values="0 0 0 0 0 0 0 0 0 0 0 0 0 0 0 0 0 0 127 0" result="hardAlpha"/>
<feOffset dy="4"/>
<feGaussianBlur stdDeviation="2"/>
<feComposite in2="hardAlpha" operator="out"/>
<feColorMatrix type="matrix" values="0 0 0 0 0 0 0 0 0 0 0 0 0 0 0 0 0 0 0.25 0"/>
<feBlend mode="normal" in2="BackgroundImageFix" result="effect1_dropShadow_2_545"/>
<feBlend mode="normal" in="SourceGraphic" in2="effect1_dropShadow_2_545" result="shape"/>
</filter>
</defs>
</svg>
